# xmcd CD database file
#
# Track frame offsets:
#	150
#	20232
#	32986
#	42216
#	53868
#	65471
#	79033
#	93136
#	108597
#	120841
#	137306
#	151083
#
# Disc length: 2219 seconds
#
# Revision: 0
# Processed by: cddbd v1.5.2PL0 Copyright (c) Steve Scherf et al.
# Submitted via: CDex 1.72
#
DISCID=8e08a90c
DTITLE=Embraceable You CD 3 OF 3 - Various Artists
DYEAR=2002
DGENRE=Jazz
TTITLE0=You've Made Me So Very Happy
TTITLE1=I Can't Believe You're In Love With Me
TTITLE2=As Long As I Live
TTITLE3=You'd Be So Nice To Come Home To 
TTITLE4=My Darling, My Darling
TTITLE5=At Last
TTITLE6=Goin' Out Of My Head - Can't Take My Eyes Off Of You
TTITLE7=You Are The Sunshine Of My Life
TTITLE8=My Heart Stood Still
TTITLE9=What's Forever For
TTITLE10=I've Grown Accustomed To Her Face
TTITLE11=As Time Goes By
EXTD=YEAR: 2002
EXTT0=
EXTT1=
EXTT2=
EXTT3=
EXTT4=
EXTT5=
EXTT6=
EXTT7=
EXTT8=
EXTT9=
EXTT10=
EXTT11=
PLAYORDER=
